<?xml version="1.0" encoding="UTF-8" standalone="no"?>
<!-- Created with Inkscape (http://www.inkscape.org/) -->

<svg
   xmlns:dc="http://purl.org/dc/elements/1.1/"
   xmlns:cc="http://creativecommons.org/ns#"
   xmlns:rdf="http://www.w3.org/1999/02/22-rdf-syntax-ns#"
   xmlns:svg="http://www.w3.org/2000/svg"
   xmlns="http://www.w3.org/2000/svg"
   xmlns:sodipodi="http://sodipodi.sourceforge.net/DTD/sodipodi-0.dtd"
   xmlns:inkscape="http://www.inkscape.org/namespaces/inkscape"
   width="65.491272mm"
   height="59.462349mm"
   viewBox="0 0 65.491272 59.462349"
   version="1.1"
   id="svg45"
   inkscape:version="0.92.2 (5c3e80d, 2017-08-06)"
   sodipodi:docname="logoJeececabPlain.svg">
  <defs
     id="defs39" />
  <sodipodi:namedview
     id="base"
     pagecolor="#ffffff"
     bordercolor="#666666"
     borderopacity="1.0"
     inkscape:pageopacity="0.0"
     inkscape:pageshadow="2"
     inkscape:zoom="1"
     inkscape:cx="-16.677067"
     inkscape:cy="48.614602"
     inkscape:document-units="mm"
     inkscape:current-layer="layer1"
     showgrid="false"
     inkscape:window-width="1920"
     inkscape:window-height="1001"
     inkscape:window-x="-9"
     inkscape:window-y="-9"
     inkscape:window-maximized="1"
     showborder="true"
     inkscape:pagecheckerboard="false" />
  <metadata
     id="metadata42">
    <rdf:RDF>
      <cc:Work
         rdf:about="">
        <dc:format>image/svg+xml</dc:format>
        <dc:type
           rdf:resource="http://purl.org/dc/dcmitype/StillImage" />
        <dc:title></dc:title>
      </cc:Work>
    </rdf:RDF>
  </metadata>
  <g
     inkscape:groupmode="layer"
     id="layer2"
     inkscape:label="Layer 2"
     style="display:inline"
     transform="translate(-66.721849,-112.81693)">
    <rect
       style="fill:#18768c;fill-opacity:1;stroke-width:0.25642762"
       id="rect4550"
       width="56.620834"
       height="30.956251"
       x="74.87709"
       y="124.49166" />
  </g>
  <g
     inkscape:label="Layer 1"
     inkscape:groupmode="layer"
     id="layer1"
     style="display:inline"
     transform="translate(-66.721849,-112.81693)">
    <g
       aria-label="J("
       style="font-style:normal;font-variant:normal;font-weight:normal;font-stretch:normal;font-size:50.79999924px;line-height:1.25;font-family:'Luckiest Guy';-inkscape-font-specification:'Luckiest Guy';letter-spacing:0px;word-spacing:0px;fill:#000000;fill-opacity:1;stroke:none;stroke-width:0.26458332"
       id="text49">
      <path
         d="m 101.86182,138.17284 q 0,2.0326 0,4.03076 0,1.99815 -0.2067,4.03076 -0.37896,4.30637 -1.860353,8.16488 -1.481391,3.82405 -4.030762,6.71793 -2.51492,2.89388 -6.13227,4.58198 -3.617351,1.6881 -8.302681,1.6881 -1.8259,0 -3.824056,-0.31006 -1.963704,-0.31006 -3.927409,-0.93018 -1.929253,-0.62011 -3.720703,-1.51584 -1.756999,-0.93017 -3.135037,-2.13596 l 2.135959,-14.26269 q 2.032607,1.9637 4.513076,3.20394 2.480468,1.20578 5.4088,1.20578 1.894802,0 3.203939,-0.55122 1.309136,-0.55121 2.17041,-1.51584 0.861274,-0.96463 1.343587,-2.23931 0.516764,-1.30914 0.72347,-2.75608 0.241157,-1.48139 0.275608,-3.03168 0.0689,-1.55029 0.0689,-3.06614 0,-5.4777 -0.551216,-10.8865 -0.551215,-5.44325 -0.964626,-10.8865 l 15.778544,-1.03353 q 1.03352,10.7487 1.03352,21.4974 z"
         style="font-size:70.55555725px;fill:#2d2d2d;fill-opacity:1;stroke-width:0.26458332"
         id="path4562"
         inkscape:connector-curvature="0" />
      <path
         d="m 132.21312,118.19128 q -3.3762,1.96371 -5.89112,4.75423 -2.51492,2.79053 -4.16856,5.99447 -1.65365,3.20394 -2.48047,6.58013 -0.82683,3.34175 -0.82683,6.44233 0,3.10059 0.65457,6.54568 0.65457,3.4451 1.99816,6.82129 1.34359,3.34175 3.37619,6.44233 2.06706,3.06614 4.85759,5.4777 l -12.33345,5.02984 q -2.51492,-1.61919 -4.47862,-3.8585 -1.9637,-2.23932 -3.4451,-4.82314 -1.48139,-2.61827 -2.51492,-5.4777 -0.99907,-2.85943 -1.65364,-5.68441 -0.62012,-2.85943 -0.93018,-5.58105 -0.2756,-2.75608 -0.2756,-5.16765 0,-3.75515 1.03352,-7.78591 1.03353,-4.06521 3.03169,-7.92372 2.0326,-3.89296 5.02984,-7.3036 2.99723,-3.41065 6.95909,-5.85667 z"
         style="font-size:70.55555725px;fill:#2d2d2d;fill-opacity:1;stroke-width:0.26458332"
         id="path4564"
         inkscape:connector-curvature="0" />
    </g>
  </g>
</svg>
